<svg viewBox="0 0 512 512" xmlns="http://www.w3.org/2000/svg">
  <path id="main" d="M 255.59961 8 C 112.69961 8 8 123.1 8 256 C 8 394.5 121.59961 504 255.59961 504 C 385.49961 504 504 403.1 504 256 C 504 118.1 397.39961 8 255.59961 8 z M 263.16211 85.457031 C 272.41292 85.457031 280.24622 88.664187 286.66211 95.080078 C 293.07799 101.49596 296.28516 109.32925 296.28516 118.58008 C 296.28516 127.68167 293.07799 135.51498 286.66211 142.08008 C 280.24622 148.49596 272.41292 151.70508 263.16211 151.70508 C 254.0605 151.70508 246.2272 148.49596 239.66211 142.08008 C 233.24622 135.51498 230.03711 127.68167 230.03711 118.58008 C 230.03711 109.32925 233.24622 101.49596 239.66211 95.080078 C 246.2272 88.664187 254.0605 85.457031 263.16211 85.457031 z M 164.01367 189.30469 L 288.45312 189.30469 L 288.45312 202.73242 L 288.45312 387.59961 L 361.41406 387.59961 L 361.41406 426.54297 L 288.45312 426.54297 L 245.48047 426.54297 L 150.58594 426.54297 L 150.58594 387.59961 L 241.00391 387.59961 L 241.00391 228.24805 L 164.01367 228.24805 L 164.01367 189.30469 z "/>
</svg>
