<svg viewBox="0 0 512 512" xmlns="http://www.w3.org/2000/svg">
  <path id="main" d="M 322.9,194.4 V 295.8 H 294.6 V 416.3 H 217.5 V 295.9 H 189.2 V 194.4 c 0,-4.4 1.6,-8.2 4.6,-11.3 3.1,-3.1 6.9,-4.7 11.3,-4.7 H 307 c 4.1,0 7.8,1.6 11.1,4.7 3.1,3.2 4.8,6.9 4.8,11.3 z M 221.4,130.7 c 0,-23.3 11.5,-35 34.5,-35 23,0 34.5,11.7 34.5,35 0,23 -11.5,34.5 -34.5,34.5 -23,0 -34.5,-11.5 -34.5,-34.5 z M 255.6,8 C 397.4,8 504,118.1 504,256 504,403.1 385.5,504 255.6,504 121.6,504 8,394.5 8,256 8,123.1 112.7,8 255.6,8 Z m 0.8,44.7 C 138.2,52.7 52.7,150.6 52.7,256 c 0,109.8 91.2,202.8 203.7,202.8 103.2,0 202.8,-81.1 202.8,-202.8 C 459.3,142.2 369,52.7 256.4,52.7 Z"/>
</svg>
