<svg viewBox="0 0 512 512" xmlns="http://www.w3.org/2000/svg">
  <path id="main" d="M 255.6,8 C 395.4,8 504,115.9 504,256 504,403.2 385.5,504 255.6,504 121.1,504 8,393.2 8,256 8,123.1 112.7,8 255.6,8 Z M 63.8,189.1 c -7.4,20.4 -11.1,42.7 -11.1,66.9 0,110.9 92.1,202.4 203.7,202.4 122.4,0 177.2,-101.8 178.5,-104.1 l -93.4,-41.6 c -7.7,37.1 -41.2,53 -68.2,55.4 v 38.1 H 244.5 V 368 C 217,367.7 191.9,357.8 169.2,338.3 l 34.1,-34.5 c 31.7,29.4 86.4,31.8 86.4,-2.2 0,-6.2 -2.2,-11.2 -6.6,-15.1 -14.2,-6 -1.8,-0.1 -219.3,-97.4 z M 256.4,52.3 C 218,52.3 144,61 85.9,145.3 l 94.8,42.5 c 10,-31.3 40.4,-42.9 63.8,-44.3 v -38.1 h 28.8 v 38.1 c 22.7,1.2 43.4,8.9 62,23 L 303,199.7 c -42.7,-29.9 -83.5,-8 -70,11.1 53.4,24.1 43.8,19.8 93,41.6 l 127.1,56.7 C 457.2,291.7 459.3,274 459.3,256 459.3,199 439.5,151 400,112.1 360.7,72.2 312.8,52.3 256.4,52.3 Z"/>
</svg>
