<svg viewBox="0 0 512 512" xmlns="http://www.w3.org/2000/svg">
  <path id="main" d="M 255.6,8 C 397.4,8 504,118.1 504,256 504,403.1 385.5,504 255.6,504 121.6,504 8,394.5 8,256 8,123.1 112.7,8 255.6,8 Z m 0.8,44.7 C 138.2,52.7 52.7,150.6 52.7,256 c 0,109.8 91.2,202.8 203.7,202.8 103.2,0 202.8,-81.1 202.8,-202.8 C 459.3,142.2 369,52.7 256.4,52.7 Z m -0.4,60.5 c -81.9,0 -102.5,77.3 -102.5,142.8 0,65.5 20.6,142.8 102.5,142.8 81.9,0 102.5,-77.3 102.5,-142.8 0,-65.5 -20.6,-142.8 -102.5,-142.8 z m 0,53.9 c 3.3,0 6.4,0.5 9.2,1.2 5.9,5.1 8.8,12.1 3.1,21.9 l -54.5,100.2 c -1.7,-12.7 -1.9,-25.1 -1.9,-34.4 0,-28.8 2,-88.9 44.1,-88.9 z m 40.8,46.2 c 2.9,15.4 3.3,31.4 3.3,42.7 0,28.9 -2,88.9 -44.1,88.9 -13.5,0 -32.6,-7.7 -20.1,-26.4 z"/>
</svg>
